HIERARCHY
ROOT SpineBase
{
  OFFSET 0.000000 0.000000 0.000000
  CHANNELS 6 Xposition Yposition Zposition Zrotation Xrotation Yrotation
  JOINT SpineMid
  {
    OFFSET 0.000000 29.901215 0.000000
    CHANNELS 3 Zrotation Xrotation Yrotation
    JOINT SpineShoulder
    {
      OFFSET 0.016501 22.244849 -0.681652
      CHANNELS 3 Zrotation Xrotation Yrotation
      JOINT Neck
      {
        OFFSET 0.023375 7.369409 -0.539555
        CHANNELS 3 Zrotation Xrotation Yrotation
        JOINT Head
        {
          OFFSET -4.586952 13.486642 -0.484151
          CHANNELS 3 Zrotation Xrotation Yrotation
          End Site
          {
            OFFSET 0 0 0
          }
        }
      }
      JOINT ShoulderLeft
      {
        OFFSET -16.013589 -5.100344 5.779689
        CHANNELS 3 Zrotation Xrotation Yrotation
        JOINT ElbowLeft
        {
          OFFSET -1.529685 -26.613452 3.550584
          CHANNELS 3 Zrotation Xrotation Yrotation
          JOINT WristLeft
          {
            OFFSET 0.789009 -21.526142 -6.986404
            CHANNELS 3 Zrotation Xrotation Yrotation
            JOINT HandLeft
            {
              OFFSET 0.894405 -5.113918 -0.991715
              CHANNELS 3 Zrotation Xrotation Yrotation
              JOINT HandTipLeft
              {
                OFFSET 2.279009 -3.756448 -1.872466
                CHANNELS 3 Zrotation Xrotation Yrotation
                End Site
                {
                  OFFSET 0 0 0
                }
              }
              JOINT ThumbLeft
              {
                OFFSET -2.453710 0.136874 -1.225250
                CHANNELS 3 Zrotation Xrotation Yrotation
                End Site
                {
                  OFFSET 0 0 0
                }
              }
            }
          }
        }
      }
      JOINT ShoulderRight
      {
        OFFSET 14.000519 -2.819229 -7.924933
        CHANNELS 3 Zrotation Xrotation Yrotation
        JOINT ElbowRight
        {
          OFFSET 7.175143 -25.045306 0.431962
          CHANNELS 3 Zrotation Xrotation Yrotation
          JOINT WristRight
          {
            OFFSET -2.009533 -21.623033 -5.826255
            CHANNELS 3 Zrotation Xrotation Yrotation
            JOINT HandRight
            {
              OFFSET -1.592395 -2.543425 0.175228
              CHANNELS 3 Zrotation Xrotation Yrotation
              JOINT HandTipRight
              {
                OFFSET -0.562212 -6.331255 -0.445599
                CHANNELS 3 Zrotation Xrotation Yrotation
                End Site
                {
                  OFFSET 0 0 0
                }
              }
              JOINT ThumbRight
              {
                OFFSET -3.595633 1.737901 -1.085381
                CHANNELS 3 Zrotation Xrotation Yrotation
                End Site
                {
                  OFFSET 0 0 0
                }
              }
            }
          }
        }
      }
    }
  }
  JOINT HipLeft
  {
    OFFSET -6.394705 0.305516 -0.849684
    CHANNELS 3 Zrotation Xrotation Yrotation
    JOINT KneeLeft
    {
      OFFSET 4.426830 -29.593263 6.517517
      CHANNELS 3 Zrotation Xrotation Yrotation
      JOINT AnkleLeft
      {
        OFFSET 5.560187 -31.352592 4.862474
        CHANNELS 3 Zrotation Xrotation Yrotation
        JOINT FootLeft
        {
          OFFSET 4.921290 -5.730041 -7.014323
          CHANNELS 3 Zrotation Xrotation Yrotation
          End Site
          {
            OFFSET 0 0 0
          }
        }
      }
    }
  }
  JOINT HipRight
  {
    OFFSET 7.127782 1.350161 -5.935092
    CHANNELS 3 Zrotation Xrotation Yrotation
    JOINT KneeRight
    {
      OFFSET 6.504966 -26.942547 4.169036
      CHANNELS 3 Zrotation Xrotation Yrotation
      JOINT AnkleRight
      {
        OFFSET 2.714218 -32.415087 6.611291
        CHANNELS 3 Zrotation Xrotation Yrotation
        JOINT FootRight
        {
          OFFSET -3.831899 -3.903808 -12.284850
          CHANNELS 3 Zrotation Xrotation Yrotation
          End Site
          {
            OFFSET 0 0 0
          }
        }
      }
    }
  }
}
MOTION
Frames: 12
Frame Time: 0.033333
-35.823166 67.900592 337.698887 -0.000000 0.000000 20.609795 -0.000000 0.000000 -20.609795 -0.000000 0.000000 0.000000 -0.000000 0.000000 0.000000 0.000000 0.000000 0.000000 -0.000000 0.000000 0.000000 -0.000000 0.000000 0.000000 -0.000000 0.000000 0.000000 -0.000000 0.000000 0.000000 0.000000 0.000000 0.000000 0.000000 0.000000 0.000000 -0.000000 0.000000 0.000000 -0.000000 0.000000 0.000000 -0.000000 0.000000 0.000000 -0.000000 0.000000 0.000000 0.000000 0.000000 0.000000 0.000000 0.000000 0.000000 -0.000000 0.000000 -20.609795 -0.000000 0.000000 0.000000 -0.000000 0.000000 0.000000 0.000000 0.000000 0.000000 -0.000000 0.000000 -20.609795 -0.000000 0.000000 0.000000 -0.000000 0.000000 0.000000 0.000000 0.000000 0.000000
-35.840933 67.861232 337.813414 0.013814 -0.068341 20.914581 0.011492 0.068770 -20.914579 -0.000000 0.000000 0.000000 -0.000000 0.000000 0.000000 0.000000 0.000000 0.000000 -0.000000 0.000000 0.000000 0.624025 -2.356824 -0.277893 -0.745973 5.939467 0.952937 -0.133126 -6.453528 -2.343474 0.000000 0.000000 0.000000 0.000000 0.000000 0.000000 -0.489218 0.733270 0.205041 2.360080 -3.578541 -0.373266 -2.901770 3.598921 -0.203290 1.990114 -2.076654 0.631934 0.000000 0.000000 0.000000 0.000000 0.000000 0.000000 0.011492 0.068770 -20.914579 -0.000000 0.000000 0.000000 0.643442 -3.845756 -4.221558 0.000000 0.000000 0.000000 0.011492 0.068770 -20.914579 -0.000000 0.000000 0.000000 -0.000000 0.000000 0.000000 0.000000 0.000000 0.000000
-35.857267 67.833212 337.882245 0.039597 -0.109690 21.089613 0.002525 0.116591 -21.089578 -0.000000 0.000000 0.000000 -0.000000 0.000000 0.000000 0.000000 0.000000 0.000000 0.524821 1.104783 0.001458 0.499194 -4.961254 -0.435626 -1.299998 10.240858 1.686924 -0.335802 -10.779297 -3.766576 0.000000 0.000000 0.000000 0.000000 0.000000 0.000000 -0.781764 1.181544 0.333797 3.840344 -5.828019 -0.535051 -5.156281 6.575404 -0.643553 3.789982 -3.882497 1.553350 0.000000 0.000000 0.000000 0.000000 0.000000 0.000000 0.002525 0.116591 -21.089578 -0.000000 0.000000 0.000000 0.512229 -6.170199 -6.288724 0.000000 0.000000 0.000000 0.002525 0.116591 -21.089578 -0.000000 0.000000 0.000000 -0.000000 0.000000 0.000000 0.000000 0.000000 0.000000
-35.872169 67.816532 337.905381 0.077355 -0.124070 21.136102 -0.027413 0.143617 -21.135984 -0.000000 0.000000 0.000000 -0.000000 0.000000 0.000000 0.000000 0.000000 0.000000 0.663884 1.296927 0.006522 0.548221 -5.818827 -0.511773 -1.611437 12.899938 2.168677 -0.534808 -13.524344 -4.588216 0.000000 0.000000 0.000000 0.000000 0.000000 0.000000 -0.885850 1.360950 0.386088 4.491728 -6.792248 -0.590911 -6.797333 8.981471 -1.415483 5.498945 -5.489522 2.769390 0.000000 0.000000 0.000000 0.000000 0.000000 0.000000 -0.027413 0.143617 -21.135984 -0.000000 0.000000 0.000000 -0.178422 -7.027014 -6.312299 0.000000 0.000000 0.000000 0.793254 0.414655 -20.904329 -0.669973 -0.545976 -0.238845 -0.000000 0.000000 0.000000 0.000000 0.000000 0.000000
-35.885639 67.811192 337.882820 0.127106 -0.111482 21.054620 -0.078569 0.149703 -21.054394 -0.000000 0.000000 0.000000 -0.000000 0.000000 0.000000 0.000000 0.000000 0.000000 0.720643 1.248999 0.016527 0.473868 -5.615678 -0.514798 -1.641948 13.902927 2.370288 -0.701620 -14.894461 -4.922353 0.000000 0.000000 0.000000 0.000000 0.000000 0.000000 -0.805036 1.278556 0.362200 4.337832 -6.500486 -0.585646 -7.830365 10.884488 -2.597200 7.180252 -6.929000 4.303451 0.000000 0.000000 0.000000 0.000000 0.000000 0.000000 -0.078569 0.149703 -21.054394 -0.000000 0.000000 0.000000 -1.403469 -6.465875 -4.257718 0.000000 0.000000 0.000000 0.805720 0.473990 -20.799931 -0.711545 -0.617112 -0.263107 -0.000000 0.000000 0.000000 0.000000 0.000000 0.000000
-35.897677 67.817191 337.814563 0.188875 -0.071906 20.845101 -0.150925 0.134409 -20.844806 -0.000000 0.000000 0.000000 -0.000000 0.000000 0.000000 0.000000 0.000000 0.000000 0.695285 0.961507 0.031707 0.276477 -4.352222 -0.442536 -1.371809 13.206843 2.276837 -0.827157 -14.928510 -4.793267 0.000000 0.000000 0.000000 0.000000 0.000000 0.000000 -0.538414 0.932778 0.262721 3.379244 -4.954792 -0.509145 -8.231908 12.348623 -4.254608 8.866916 -8.191832 6.190805 0.000000 0.000000 0.000000 0.000000 0.000000 0.000000 -0.150925 0.134409 -20.844806 -0.000000 0.000000 0.000000 -3.311712 -4.509356 0.053701 0.000000 0.000000 0.000000 0.690415 0.493829 -20.594294 -0.661193 -0.632341 -0.258773 -0.000000 0.000000 0.000000 0.000000 0.000000 0.000000
-35.934154 67.811304 337.734998 0.237891 -0.033129 20.576104 -0.211072 0.114623 -20.575824 -0.000000 0.000000 0.000000 -0.000000 0.000000 0.000000 0.000000 0.000000 0.000000 0.683144 0.645914 0.050219 0.347638 -3.476795 -0.463264 0.812530 12.089232 1.453291 -1.566406 -12.148543 -3.399240 0.000000 0.000000 0.000000 0.000000 0.000000 0.000000 -0.000000 0.000000 0.000000 2.206728 -3.238730 -0.233400 -9.721310 18.527548 -8.106373 11.413988 -14.885572 11.509194 0.000000 0.000000 0.000000 0.000000 0.000000 0.000000 -0.211072 0.114623 -20.575824 -0.000000 0.000000 0.000000 -8.249999 1.996750 12.433550 0.000000 0.000000 0.000000 0.532360 0.489618 -20.344676 -0.566718 -0.610032 -0.238085 -0.000000 0.000000 0.000000 0.000000 0.000000 0.000000
-35.968074 67.820737 337.604679 0.301093 0.026359 20.075097 -0.291848 0.078593 -20.074966 -0.000000 0.000000 0.000000 -0.000000 0.000000 0.000000 0.000000 0.000000 0.000000 -0.000000 0.000000 0.000000 1.082089 -0.806173 -0.373867 -1.135664 7.891533 1.619955 -0.404381 -9.177734 -2.452057 0.000000 0.000000 0.000000 0.000000 0.000000 0.000000 0.514347 -0.683644 -0.183662 -0.516573 0.681964 0.189805 -3.937191 13.779849 -8.339586 7.443125 -10.366952 9.451881 0.000000 0.000000 0.000000 0.000000 0.000000 0.000000 -0.291848 0.078593 -20.074966 -0.000000 0.000000 0.000000 -12.674451 5.341342 21.339555 0.000000 0.000000 0.000000 -0.291848 0.078593 -20.074966 -0.000000 0.000000 0.000000 -0.000000 0.000000 0.000000 0.000000 0.000000 0.000000
-35.986490 67.894811 337.420421 0.372479 0.070038 19.449433 -0.374544 0.057985 -19.449471 -0.000000 0.000000 0.000000 -0.790788 -0.163877 -0.085452 0.000000 0.000000 0.000000 0.232700 -1.251624 0.105389 0.378837 4.462134 -0.207739 -1.639886 1.365571 1.039777 2.626894 -3.937001 -1.237344 0.000000 0.000000 0.000000 0.000000 0.000000 0.000000 0.717769 -2.430267 -0.667289 -3.485928 7.542324 1.169731 1.732763 9.743742 -9.544908 6.298600 -4.963282 9.284997 0.000000 0.000000 0.000000 0.000000 0.000000 0.000000 -0.374544 0.057985 -19.449471 -0.000000 0.000000 0.000000 -14.149024 4.438608 22.835705 0.000000 0.000000 0.000000 -0.374544 0.057985 -19.449471 -0.000000 0.000000 0.000000 -0.000000 0.000000 0.000000 0.000000 0.000000 0.000000
-35.931104 68.016639 337.102494 0.547809 0.272495 18.723108 -0.606289 -0.082221 -18.724846 -0.000000 0.000000 0.000000 -1.017646 0.327783 0.078105 0.000000 0.000000 0.000000 -0.240172 -2.547175 0.108713 -3.457259 14.349161 1.996103 4.566977 -16.023758 -1.892264 0.010989 3.928255 0.156934 0.000000 0.000000 0.000000 0.000000 0.000000 0.000000 1.525751 -4.549198 -1.211549 -7.876237 16.695010 2.881230 -12.245624 14.904247 -16.543944 25.882237 -1.737023 19.851819 0.000000 0.000000 0.000000 0.000000 0.000000 0.000000 -0.744305 -1.352162 -18.851770 -0.279765 1.246410 0.128239 -15.780710 4.915441 25.643819 0.000000 0.000000 0.000000 -0.606289 -0.082221 -18.724846 -0.000000 0.000000 0.000000 -0.000000 0.000000 0.000000 0.000000 0.000000 0.000000
-35.801260 68.149303 336.672929 0.820621 0.625085 17.901869 -0.973048 -0.342510 -17.909254 -0.000000 0.000000 0.000000 -1.149341 1.440580 0.464965 0.000000 0.000000 0.000000 -0.270457 -2.749489 0.115108 -9.439071 22.215446 5.568368 1.018585 -29.744946 -5.796062 4.696474 15.658885 4.258155 0.000000 0.000000 0.000000 0.000000 0.000000 0.000000 3.174449 -3.381772 -0.813727 -15.953916 23.570262 5.159348 -14.773620 26.198961 -26.921608 33.360296 1.538732 34.551770 0.000000 0.000000 0.000000 0.000000 0.000000 0.000000 -1.505913 -2.300307 -18.202628 -0.105307 2.026240 0.282945 -17.475286 5.614021 28.743582 0.000000 0.000000 0.000000 -2.047326 -0.204517 -18.127618 1.526645 -0.637365 0.236296 -0.941114 3.138934 -0.694205 0.000000 0.000000 0.000000
-35.624063 68.274920 336.174233 1.143873 1.116198 17.114536 -0.526822 -0.395489 -17.103185 -0.756992 -0.582862 -0.026611 -1.030682 3.018478 1.021072 0.000000 0.000000 0.000000 -0.940951 -3.449545 0.044261 -19.717675 33.687513 13.433272 -17.714714 -31.750641 -15.325851 13.198717 18.769289 15.055250 0.000000 0.000000 0.000000 0.000000 0.000000 0.000000 5.693477 -2.454134 -0.475896 -29.208431 33.807005 10.641880 -41.124617 44.382143 -35.773857 58.028844 22.742146 56.578986 0.000000 0.000000 0.000000 0.000000 0.000000 0.000000 -2.396415 -3.362569 -17.620558 0.132416 2.803901 0.447773 -18.627688 6.306881 31.017360 0.000000 0.000000 0.000000 -3.089807 -0.755671 -17.527459 2.064091 -0.602970 0.366011 0.040422 0.888023 -1.400725 0.000000 0.000000 0.000000
